<?xml version="1.0" encoding="utf-8"?>
<!-- Generator: Adobe Illustrator 25.2.3, SVG Export Plug-In . SVG Version: 6.00 Build 0)  -->
<svg version="1.1" id="Ebene_1" xmlns="http://www.w3.org/2000/svg" xmlns:xlink="http://www.w3.org/1999/xlink" x="0px" y="0px"
	 viewBox="0 0 32 32" style="enable-background:new 0 0 32 32;" xml:space="preserve">
<style type="text/css">
	.st0{fill:#A76751;}
	.st1{clip-path:url(#SVGID_2_);}
	.st2{fill:#FFFFFF;}
</style>
<g>
	<circle class="st0" cx="16" cy="16" r="16"/>
</g>
<g>
	<defs>
		<rect id="SVGID_1_" x="9.3" y="1.6" width="25.4" height="30"/>
	</defs>
	<clipPath id="SVGID_2_">
		<use xlink:href="#SVGID_1_"  style="overflow:visible;"/>
	</clipPath>
	<g class="st1">
		<path class="st2" d="M17.1,12.3c0-0.1,0.3-0.7,0.7-1.2c0.2-0.3,0.4-0.5,0.6-0.6c0.2-0.1,0.3-0.2,0.3-0.2c0.2-0.1,0.3-0.2,0.5-0.2
			c0,0,0.1,0,0.1,0c0,0,0.1,0,0.1,0l0.1,0l0.1,0l0.1,0c0.4,0.1,0.7,0.4,1,0.7c0.4,0.3,0.7,0.7,1,1.2c-0.2-0.4-0.4-0.7-0.7-1.1
			c-0.3-0.3-0.6-0.6-1-0.8c-0.3-0.1-0.7-0.2-1-0.1c-0.3,0.1-0.6,0.3-0.8,0.6c-0.2,0.3-0.4,0.5-0.6,0.8C17.4,11.7,17.2,12,17.1,12.3"
			/>
		<path class="st2" d="M20.9,10.7c0.8,0.9,1.3,1.9,1.5,3.1c-0.1-0.4-0.2-0.7-0.4-1C21.8,12,21.4,11.3,20.9,10.7"/>
		<path class="st2" d="M19.8,27.7l-0.1,0.2L19.7,28l-0.1,0.3c-0.1,0.2-0.2,0.4-0.3,0.7c-0.1,0.2-0.2,0.4-0.4,0.6
			c-0.1,0.2-0.3,0.3-0.4,0.5c-0.2,0.1-0.3,0.2-0.5,0.1c-0.1,0-0.3-0.1-0.4-0.3c-0.3-0.3-0.4-0.7-0.5-1.2c-0.1-0.4-0.1-0.9-0.1-1.3
			c0-0.1,0-0.2,0-0.3c0-0.1,0-0.2,0.1-0.3c0-0.2,0.1-0.5,0.2-0.7c0.2-0.7,0.3-1.4,0.5-2.1c0.1-0.6,0.2-1.3,0.2-1.9
			c0-0.7,0-1.4-0.2-2.1c-0.1-0.4-0.2-0.7-0.3-1c0,0,0,0,0,0c-0.1,0.3-0.2,0.6-0.3,0.9c0.1,0.2,0.1,0.4,0.2,0.7
			c0.1,0.5,0.1,1,0.1,1.5c0,0.5,0,1-0.1,1.5c-0.1,1-0.4,1.9-0.6,2.9c-0.1,0.5-0.2,1-0.2,1.4c0,0.5,0,1,0.2,1.4
			c0,0.1,0.1,0.2,0.1,0.3c0,0.1,0.1,0.2,0.1,0.3c0.1,0.2,0.2,0.4,0.4,0.6c0.1,0.1,0.2,0.2,0.3,0.2c0,0,0.1,0,0.1,0.1
			c0,0,0.1,0,0.2,0c0.2,0,0.4-0.1,0.6-0.2c0.4-0.3,0.6-0.7,0.8-1.2c0.1-0.2,0.2-0.4,0.3-0.7c0.1-0.2,0.2-0.5,0.2-0.7
			c0.2-0.9,0.4-1.9,0.6-2.9C20.3,25.8,20.1,26.7,19.8,27.7"/>
		<path class="st2" d="M17.4,21.2c0,0.1,0,0.2,0,0.5c0,0.3,0,0.6-0.1,1c-0.1,0.8-0.4,1.8-0.7,2.8c-0.1,0.3-0.1,0.5-0.2,0.8
			c-0.1,0.3-0.1,0.5-0.2,0.8c-0.1,0.5-0.1,1-0.1,1.4c0,0.4,0.1,0.8,0.2,1c0,0.1,0.1,0.2,0.1,0.3c0,0.1,0,0.1,0,0.1
			c0.2,0.4,0.4,0.7,0.8,1c0.1,0.1,0.2,0.1,0.3,0.2c0.1,0,0.1,0.1,0.2,0.1c0.1,0,0.1,0,0.2,0c0.1,0,0.3,0,0.4,0c0.1,0,0.1,0,0.2-0.1
			c0.1,0,0.1-0.1,0.2-0.1c0.4-0.3,0.7-0.6,0.9-0.9c0.2-0.3,0.4-0.7,0.5-1c0.1-0.2,0.1-0.3,0.2-0.5c0.1-0.2,0.1-0.4,0.2-0.5
			c0.1-0.4,0.2-0.7,0.2-1c0.1-0.7,0.3-1.3,0.4-2c0.1-0.4,0.1-0.8,0.2-1.2c0.1-0.4,0.2-0.8,0.3-1.2c0.2-0.8,0.4-1.6,0.7-2.4
			c-0.3,0.6-0.5,1.3-0.8,1.9c-0.2,0.6-0.5,1.3-0.6,2c-0.1,0.7-0.3,1.4-0.4,2c-0.1,0.3-0.1,0.7-0.2,1c-0.1,0.3-0.2,0.7-0.3,1
			c-0.2,0.5-0.4,1-0.7,1.5c-0.1,0.2-0.3,0.5-0.5,0.7c-0.2,0.2-0.5,0.3-0.8,0.3c-0.1,0-0.2,0-0.2,0l-0.1,0c0,0-0.1,0-0.1-0.1
			c-0.1-0.1-0.2-0.2-0.3-0.3c-0.2-0.2-0.3-0.5-0.4-0.7c-0.2-0.5-0.3-1.1-0.3-1.7c0-0.6,0.1-1.1,0.2-1.7c0.1-0.5,0.2-1.1,0.4-1.6
			c0.1-0.5,0.2-1.1,0.3-1.6C17.4,22.3,17.4,21.7,17.4,21.2"/>
		<path class="st2" d="M23,15.7c-0.1-0.7-0.3-1.3-0.6-1.9c0.2,0.7,0.3,1.2,0.3,1.9L23,15.7z"/>
		<path class="st2" d="M22.5,18.4c-0.1,0.3-0.1,0.5-0.2,0.8c-0.1,0.3-0.2,0.6-0.3,0.9c-0.1,0.3-0.2,0.6-0.4,0.9
			c-0.2,0.6-0.4,1.2-0.6,1.7c-0.1,0.3-0.2,0.6-0.3,0.9c-0.1,0.3-0.1,0.6-0.2,0.9c0.1-0.3,0.2-0.6,0.2-0.9c0.1-0.3,0.2-0.6,0.3-0.9
			c0.2-0.6,0.5-1.1,0.7-1.7c0.1-0.3,0.3-0.6,0.4-0.8c0.1-0.3,0.3-0.6,0.3-0.9c0.1-0.3,0.1-0.6,0.2-0.8L22.5,18.4z"/>
		<path class="st2" d="M16.4,14c0.1-0.6,0.3-0.9,0.5-1.5c0.2-0.6,0.5-1.1,0.8-1.6c0.2-0.3,0.4-0.5,0.6-0.7c0.2-0.2,0.5-0.4,0.8-0.4
			c0.3,0,0.6,0.1,0.9,0.2c0.3,0.1,0.5,0.3,0.7,0.6c-0.2-0.2-0.5-0.4-0.7-0.6c-0.1,0-0.1-0.1-0.2-0.1c0,0-0.1,0-0.1,0l-0.1,0
			c-0.2-0.1-0.3-0.1-0.5-0.1c-0.3,0-0.6,0.2-0.9,0.4c-0.3,0.2-0.5,0.4-0.6,0.7c-0.1,0.2-0.2,0.4-0.4,0.6c-0.1,0.2-0.2,0.4-0.3,0.5
			c-0.2,0.4-0.3,0.8-0.5,1.2c-0.1,0.4-0.2,0.5-0.3,0.9L16.4,14z"/>
		<path class="st2" d="M17.2,19.9c-0.1-0.4-0.2-0.9-0.4-1.3c-0.1-0.2-0.2-0.4-0.3-0.7c-0.1-0.2-0.2-0.4-0.3-0.7
			c-0.2-0.5-0.3-0.9-0.3-1.4c0-0.5,0-1,0.1-1.5c0.1-0.1,0.3-0.1,0.4-0.2c-0.1,0.6-0.2,1.2-0.1,1.7c0.1,0.6,0.3,1.1,0.5,1.6
			c0,0.1,0.1,0.1,0.1,0.2l0.1,0.2c0.1,0.2,0.1,0.3,0.2,0.5c0,0.1,0.1,0.2,0.1,0.3c0.3-1.5,0.8-3.5,1.1-4.3c0.1-0.3,1-2.2,1.1-4.6
			c0,0-0.1,0-0.1-0.1l-0.1,0l-0.1,0l-0.1,0c0,0-0.1,0-0.1,0c0,0-0.1,0-0.1,0c-0.2,0-0.4,0.1-0.5,0.2c0,0-0.1,0.1-0.3,0.2
			c-0.2,0.1-0.4,0.4-0.6,0.6c-0.4,0.5-0.6,1.1-0.7,1.2c0.1-0.3,0.3-0.6,0.4-0.9c0.2-0.3,0.4-0.6,0.6-0.8c0.2-0.3,0.5-0.5,0.8-0.6
			c0.3-0.1,0.6,0,0.9,0.1c0,0,0,0,0-0.1c-0.2-0.1-0.4-0.1-0.7-0.1c-0.3,0-0.6,0.2-0.8,0.4c-0.2,0.2-0.4,0.4-0.6,0.7
			c-0.3,0.5-0.6,1.1-0.8,1.6c-0.2,0.6-0.3,1.1-0.4,1.7l-0.2,0.1c0.1-0.4,0.2-0.8,0.3-1.2c0.1-0.4,0.3-0.8,0.5-1.2
			c0.1-0.2,0.2-0.4,0.3-0.5c0.1-0.2,0.2-0.4,0.4-0.6c0.2-0.3,0.4-0.5,0.6-0.7c0.2-0.2,0.6-0.4,0.9-0.4c0.2,0,0.3,0,0.5,0.1l0.1,0
			c0,0,0.1,0,0.1,0c0-0.6-0.1-1.2-0.2-1.9c-0.7-3.3-2.6-5.5-4.7-5.7c-3.2-0.4-3.7,2.2-4,3.2c-0.2,1-0.5,3.3-0.4,4.6
			c0.1,1,0.8,4.6,0.5,6.3c-0.3,1.8-1.1,4.9-1.3,6.8c-0.2,1.9,1.3,3.4,3.1,3.5c1.8,0.1,2.9-1.5,3.2-2.3c0.4-0.7,0.9-3,1.1-4.1
			C17.2,20.1,17.2,20,17.2,19.9"/>
	</g>
</g>
<g>
	<defs>
		<rect id="SVGID_3_" x="-2.3" y="4.3" width="31.5" height="24.6"/>
	</defs>
	<clipPath id="SVGID_4_">
		<use xlink:href="#SVGID_3_"  style="overflow:visible;"/>
	</clipPath>
</g>
</svg>
